<svg xmlns="http://www.w3.org/2000/svg" xmlns:xlink="http://www.w3.org/1999/xlink" x="0px" y="0px"
	 viewBox="0 0 128 128" style="enable-background:new 0 0 128 128;">
<path fill="none" stroke="#0064A0" stroke-width="2"  d="M41.6,35.5c0.1,0,0.1,0.1,0.2,0.1c0.1,0,0.1,0.1,0.2,0.1c7.1,2.1,14.6,2.2,21.7,0.2l0.7-0.2
	c0.2,0,0.3-0.1,0.4-0.2c3.1-3.1,4.8-7.2,4.8-11.6C69.5,15.3,62.7,8.2,54,7.6c-9-0.5-16.7,6.5-17.1,15.5
	C36.6,27.8,38.3,32.2,41.6,35.5L41.6,35.5z"/>
<path fill="none" stroke="#0064A0" stroke-width="2" d="M61.8,29.6c2.7-5.1-0.1-12.4-0.3-12.7"/>
<path fill="none" stroke="#0064A0" stroke-width="2" d="M63.1,74.1c-0.8,0.8-1.9,1.2-3,1.2H45.3c-2.3,0-4.2-1.9-4.2-4.2v-4.7h8.7c0.5,0,1-0.4,1-1c0-0.5-0.4-1-0.9-1
	h-8.7V60H56c0.5,0,1-0.4,1-1c0-0.5-0.4-1-1-1H41.3c0.2-2.1,2-3.7,4.1-3.8h14.8c2.3,0,4.2,1.9,4.2,4.2l0,0v12.5
	C64.4,72.3,63.9,73.3,63.1,74.1z"/>
<path fill="none" stroke="#0064A0" stroke-width="2" d="M44.4,45.8c-0.2,0.5,0,1.1,0.5,1.3l0.1,0.1c0.2,0.1,5.3,2,14.3,0.7c0.5-0.2,0.8-0.7,0.7-1.3l0,0"/>
<path fill="none" stroke="#0064A0" stroke-width="2" d="M58.4,66.5c-1.7,0-3.1,1.4-3.1,3.1c0,0.8,0.3,1.6,0.9,2.2c0.2,0.2,0.4,0.3,0.6,0.5c0.5,0.3,1,0.4,1.6,0.4
	c0.8,0,1.6-0.3,2.2-0.9c0.6-0.6,0.9-1.4,0.9-2.2C61.4,67.9,60.1,66.5,58.4,66.5z"/>
<path fill="none" stroke="#0064A0" stroke-width="2" d="M84.3,60.2v-4v-8.5l0.2-3l0.1-3.1v-4c0-8.4-8.6-10.4-11.1-10.9 M71,84.2h8.5 M25.9,84h9 M32.9,27
	c-1.6,0.3-5.1,0.9-6.5,1.6c-3.6,2-5.6,5-5.7,8.7v24.9 M27.7,75.4l-9.8-0.8c0.5-5.2,1.8-10.3,3.9-15.1l3.7,1.7c0.5,0.2,1,0,1.3-0.5
	c1.6-3,3.4-5.8,5.4-8.5c0.2-0.2,0.2-0.5,0.2-0.8c-0.1-0.3-0.2-0.5-0.5-0.6l-3.5-2.1c1.5-1.8,3.1-3.4,4.8-5c1.1,1.8,3.8,7.1-0.5,14.4
	C30,63.1,28.2,72.5,27.7,75.4z M27.3,50.4L30,52c-1.7,2.3-3.2,4.6-4.5,7.1l-2.8-1.3C24,55.2,25.5,52.7,27.3,50.4z M25.4,83.9
	c-1,0.8-2.3,1.2-3.6,1.1c-2.7-0.3-4.6-2.7-4.3-5.3l0,0l0.3-3.1l9.7,0.8l-0.3,3.3C27,81.9,26.4,83.1,25.4,83.9L25.4,83.9z
	 M47.4,125.6L47.4,125.6H34.5c-2.5,0-4.5-2-4.5-4.5V120c0-2.3,1.7-4.1,3.9-4.4l0,0H34c0,0,0.3,0,0.4,0h9.9c0.8,0,1.6,0.2,2.3,0.6
	c0.3,0.2,0.6,0.4,0.9,0.7c0.8,0.8,1.3,1.9,1.3,3v2.3v0.1v1.9C48.9,124.9,48.3,125.6,47.4,125.6L47.4,125.6z M56.1,93.9
	c-1.6-1.6-4.3-1.6-5.9,0c-0.8,0.8-1.2,1.8-1.2,2.9v6.5h-8.9c-0.5,0-1,0.4-1,1c0,0.3,0.2,0.7,0.5,0.8c0.1,0.1,0.3,0.1,0.5,0.1H49
	v10.1c-1.2-1.2-2.8-1.9-4.5-1.9H35l0.1-55c0-0.1,0-0.1,0-0.2c2-3.5,2.6-7.6,1.7-11.6c-0.4-1.5-1-2.9-1.9-4.2l0.5-0.4
	c0.6-0.5,1.6-1,2.6-1.2l6.4,1.4c5.2,1.2,10.6,1.3,15.9,0.2l7.9-1.6c1,0.6,1.9,1.2,2.8,1.9c-0.8,1.3-1.5,2.6-1.8,4.1
	c-0.7,2.8-0.9,7.1,2.1,12.4l0.1,0.2c0,0.1,0,0.2-0.1,0.2l-0.1,53.9h-9.5c-1.7,0-3.3,0.7-4.5,1.8v-7.5H66c0.5,0,1-0.5,0.9-1
	c0-0.5-0.4-0.9-0.9-0.9h-8.8v-4.8h4.5c0.5,0.1,1-0.3,1.1-0.9c0.1-0.5-0.3-1-0.9-1.1c-0.1,0-0.1,0-0.2,0h-4.5v-2.4
	C57.2,95.8,56.8,94.7,56.1,93.9L56.1,93.9z M73.9,116.2c1.4,0.8,2.2,2.3,2.2,3.9v1.1c0,2.5-2,4.5-4.5,4.5l-12.9-0.1
	c-0.8,0-1.5-0.7-1.5-1.5l0,0v-4c0,0,0-0.1,0.1-0.1v-0.2c0.1-2.4,2.1-4.3,4.5-4.3h9.9C72.4,115.6,73.2,115.8,73.9,116.2z M87.4,84
	c-1.7,2.1-4.7,2.4-6.8,0.8c-1-0.8-1.7-2-1.8-3.4l-0.4-3.9l9.7-0.8l0.4,3.7C88.6,81.7,88.2,83,87.4,84z M87.9,74.7l-9.8,0.8
	c-0.5-2.9-2.4-12.3-5-17.2c-0.1-0.2-0.2-0.3-0.4-0.4c-3.9-7.1-1.4-12.2-0.2-14c2.2,1.9,4.1,3.9,5.9,6.2l-3.5,2
	c-0.5,0.3-0.6,0.9-0.4,1.3s0.9,0.6,1.3,0.4l3.6-2.2l0.8,1.1l-1.8,0.9C78,54,77.8,54.6,78,55c0.1,0.2,0.2,0.3,0.4,0.4
	c0.3,0.2,0.6,0.2,0.9,0l2.1-1C85,60.6,87.3,67.6,87.9,74.7z M39.1,9.8c4.1-3.9,9.6-5.9,15.2-5.6c3.2,0.2,6.4,1.1,9.1,2.8
	c6.3,3.7,10.2,10.5,10.2,17.8c0,5.3-2.1,10.3-5.8,14.1l-8,1.6c-5,1-10.1,0.9-15.1-0.2l-6.3-1.4c-7.9-8.1-7.6-21.1,0.5-28.9
	C39,9.9,39.1,9.9,39.1,9.8z"/>
</svg>