<svg xmlns="http://www.w3.org/2000/svg" viewBox="0 0 566.9 566.9">
<g fill="none" stroke="#0064A0" stroke-width="10" stroke-linecap="round" stroke-linejoin="round">
  <!-- Bulb -->
  <path d="M283.5,50c-77.3,0-140,62.7-140,140c0,45.6,21.8,86.1,55.6,111.8v62.2c0,15.5,12.5,28,28,28h112.8c15.5,0,28-12.5,28-28v-62.2c33.8-25.7,55.6-66.2,55.6-111.8C423.5,112.7,360.8,50,283.5,50z"/>

  <!-- Filament lines -->
  <line x1="283.5" y1="130" x2="283.5" y2="200"/>
  <line x1="240" y1="155" x2="270" y2="185"/>
  <line x1="327" y1="155" x2="297" y2="185"/>

  <!-- Base segments -->
  <line x1="227.1" y1="392" x2="339.9" y2="392"/>
  <line x1="237.1" y1="420" x2="329.9" y2="420"/>
  <line x1="247.1" y1="448" x2="319.9" y2="448"/>

  <!-- Bottom cap -->
  <path d="M257.1,476h52.8c11,0,20,9,20,20v0c0,11-9,20-20,20h-52.8c-11,0-20-9-20-20v0C237.1,485,246.1,476,257.1,476z"/>
</g>
</svg>
