<?xml version="1.0" encoding="utf-8"?>
<!-- Generator: Adobe Illustrator 25.1.0, SVG Export Plug-In . SVG Version: 6.00 Build 0)  -->
<svg version="1.1" id="Ebene_1" xmlns="http://www.w3.org/2000/svg" xmlns:xlink="http://www.w3.org/1999/xlink" x="0px" y="0px"
	 viewBox="0 0 408.78 153" enable-background="new 0 0 408.78 153" xml:space="preserve">
<path fill="#0064A0" d="M129.527,48.757c-20.14,0-35.328,15.02-35.328,34.94c0,19.92,15.188,34.94,35.328,34.94
	c20.137,0,35.324-15.02,35.324-34.94C164.851,63.777,149.664,48.757,129.527,48.757z M129.527,104.478
	c-11.48,0-20.137-8.934-20.137-20.781s8.657-20.781,20.137-20.781s20.137,8.934,20.137,20.781S141.007,104.478,129.527,104.478z"/>
<path fill="#0064A0" d="M288.124,48.757c-7.149,0-12.781,2.102-16.394,3.991V17.813h-15.191v91.436c0,0,10.273,9.388,28.878,9.388
	c20.543,0,35.454-15.072,35.454-35.842C320.871,63.389,306.792,48.757,288.124,48.757z M285.802,104.862
	c-4.596,0-10.217-1.371-14.072-3.389V67.796c3.141-2.396,8.136-5.009,14.978-5.009c11.095,0,18.846,8.493,18.846,20.651
	C305.554,96.051,297.432,104.862,285.802,104.862z"/>
<path fill="#0064A0" d="M210.221,48.757c-7.15,0-12.781,2.102-16.394,3.991V17.813h-15.191v91.436c0,0,10.272,9.388,28.878,9.388
	c20.543,0,35.454-15.072,35.454-35.842C242.968,63.389,228.889,48.757,210.221,48.757z M207.899,104.862
	c-4.596,0-10.217-1.371-14.072-3.389V67.796c3.141-2.396,8.136-5.009,14.977-5.009c11.095,0,18.846,8.493,18.846,20.651
	C227.651,96.051,219.529,104.862,207.899,104.862z"/>
<g>
	<path fill="#00AAF0" d="M52.865,48.602l10.018,10.018L42.316,79.207c-0.904,0.968-1.457,2.243-1.457,3.673
		c0,2.995,2.428,5.423,5.423,5.423c1.43,0,2.688-0.514,3.656-1.418L70.55,66.29l10.018,10.018V48.602H52.865z"/>
	<path fill="#0064A0" d="M66.362,83.884c-0.012,5.87-1.945,10.725-5.928,14.833c-3.963,4.096-8.678,6.086-14.418,6.086
		c-5.726,0-10.381-1.962-14.229-6.006c-3.89-4.089-5.778-8.944-5.778-14.852s1.966-10.861,6.013-15.142
		c3.745-3.965,8.059-5.967,13.111-6.206V48.565c-9.134,0.238-17.042,3.663-23.478,10.294c-6.642,6.852-10.011,15.216-10.011,24.859
		c0,9.493,3.351,17.762,9.955,24.572c6.628,6.842,14.901,10.311,24.586,10.311c9.685,0,17.944-3.473,24.544-10.318
		c6.48-6.729,9.78-14.924,9.859-24.4H66.362z"/>
</g>
<path fill="#0064A0" d="M335.076,142.84h16.592L395,50.178h-16.209l-11.578,25.03c-2.441,5.313-4.792,10.539-7.135,15.747
	c-2.239-4.998-4.733-10.5-7.146-15.751l-11.574-25.027h-16.856l27.272,58.396L335.076,142.84z"/>
</svg>
