<svg xmlns="http://www.w3.org/2000/svg" xmlns:xlink="http://www.w3.org/1999/xlink" x="0px" y="0px"
	 viewBox="0 0 456 456" style="enable-background:new 0 0 456 456;">
<g>
	<path fill="none" stroke="#0064A0" stroke-width="5"  d="M227.8,16c0.4,0,0.7,0,1.1,0c56.9,0.3,110.2,22.5,149.9,62.5s61.5,93.3,61.2,150.2
		c-0.2,56.8-22.3,110-62.2,149.8c-39.8,39.7-93,61.6-149.7,61.6h-0.6c-56.9-0.2-110.2-22.2-150-62.2C37.8,337.8,15.9,284.5,16,227.7
		c0.1-56.9,22.1-110.1,62-150C117.8,37.9,171,16,227.8,16"/>
</g>
<g>
	<path fill="none" stroke="#0064A0" stroke-width="5" d="M225,68.2c-19.9,0-37.8,13-42.5,32.7c-2,8.2-2.7,17.2-1.5,25.6c2.9,21.6,6.1,43.2,11.2,64.3
		c5.6,23.4,13.3,46.3,20.4,69.3c2.1,6.9,6.5,12.5,14.6,12.6c0.1,0,0.2,0,0.3,0c6.7,0,10.9-4.3,13.1-10.3
		c16.7-44.5,28.8-90.1,30.5-137.9c0-5.2,0.4-10.4-0.1-15.5c-1.9-22.5-18.5-38.5-41.8-40.7C227.8,68.3,226.4,68.2,225,68.2L225,68.2z
		"/>
</g>
<g>
	<path fill="none" stroke="#0064A0" stroke-width="5" d="M228.1,319.3c-20.2,0-34.1,13.4-34.4,33.3c-0.3,19.4,14.4,34.7,33.7,35.1c0.3,0,0.5,0,0.8,0
		c18.8,0,33.8-14.9,34.1-34c0.3-20.1-13.6-34.3-33.8-34.4C228.4,319.3,228.3,319.3,228.1,319.3L228.1,319.3z"/>
</g>
</svg>
