<svg xmlns="http://www.w3.org/2000/svg" xmlns:xlink="http://www.w3.org/1999/xlink" x="0px" y="0px"
	 viewBox="0 0 566.9 566.9" style="enable-background:new 0 0 566.9 566.9;">
<g>
	<path fill="none" stroke="#0064A0" stroke-width="10" stroke-linecap="round" d="	
		 M376.3,244.7c30.9,0,56-25.1,56-56s-25.1-56-56-56s-56,25.1-56,56S345.4,244.7,376.3,244.7 M560,5c-2.4,0-207.6,0.5-367.8,160.7
		c-7.5,7.5-14.1,15.4-20,23.8c-6.2-0.5-13.2-0.8-20.5-0.8c-26.1,0-56.6,4.4-74,21.8C25.4,262.7,8,349.8,8,349.8l115.1-16.4v39.5
		l69.1,69.1h39.5L215.2,557c0,0,87.1-17.4,139.4-69.7c22.3-22.3,23.2-65.9,21-94.5c8.4-5.9,16.4-12.5,23.8-20
		C560.5,211.7,560,5,560,5C560,5,560,5,560,5L560,5z
		"/>
</g>
<line stroke="#0064A0" stroke-width="10" stroke-linecap="round" x1="116" y1="395" x2="54.1" y2="452"/>
<line stroke="#0064A0" stroke-width="10" stroke-linecap="round" x1="121.1" y1="442.4" x2="49" y2="509"/>
<line stroke="#0064A0" stroke-width="10" stroke-linecap="round" x1="172.3" y1="452" x2="110.3" y2="509"/>
</svg>
