<!DOCTYPE svg PUBLIC "-//W3C//DTD SVG 1.1//EN" "http://www.w3.org/Graphics/SVG/1.1/DTD/svg11.dtd">
<!-- Uploaded to: SVG Repo, www.svgrepo.com, Transformed by: SVG Repo Mixer Tools -->
<svg width="800px" height="800px" viewBox="0 0 16 16" xmlns="http://www.w3.org/2000/svg" fill="#0064a0" stroke="#0064a0" stroke-width="0.22400000000000003">
<g id="SVGRepo_bgCarrier" stroke-width="0"/>
<g id="SVGRepo_tracerCarrier" stroke-linecap="round" stroke-linejoin="round"/>
<g id="SVGRepo_iconCarrier">
<path d="M13.5 1h-3l-.5.5v3l.5.5h.068L7.5 9.6 4.432 5H4.5l.5-.5v-3L4.5 1h-3l-.5.5v3l.5.5h1.729l3.333 5H5.5l-.5.5v4l.5.5h4l.5-.5v-4l-.5-.5H8.438l3.333-5H13.5l.5-.5v-3l-.5-.5zM2 4V2h2v2H2zm7 7v3H6v-3h3zm4-7h-2V2h2v2z"/>
</g>
</svg>